<svg version="1.1" id="layer" xmlns="http://www.w3.org/2000/svg" xmlns:xlink="http://www.w3.org/1999/xlink" x="0px" y="0px" viewBox="0 0 92 50" style="enable-background:new 0 0 92 50;" xml:space="preserve" fill="#00A33E">
<path d="M68.8,46.3c0.6-0.5,0.9-1.1,0.9-1.9c0-0.7-0.3-1.5-0.9-1.9c-0.7-0.6-1.9-0.8-3.7-0.8c-0.8,0-2.2,0.2-3.2,0.4c-0.2,0-0.3,0.1-0.4,0.2l0,0v7.3h1.8V47c0.6,0.1,1.3,0.1,1.7,0.1c0.4,0,0.7,0,1.1,0l1.5,2.3h2.1l-1.7-2.8C68.4,46.6,68.6,46.4,68.8,46.3z M63.4,43.3c0.6-0.1,1.4-0.2,1.7-0.2c1.3,0,1.8,0,2.3,0.4c0.4,0.3,0.4,0.7,0.4,0.8c0,0,0,0.5-0.4,0.7c-0.5,0.4-1,0.4-2.3,0.4c-0.4,0-1.1,0-1.7-0.2V43.3z"/>
<path d="M48.4,42.3c-0.9-0.7-1.9-0.8-3.6-0.8c-0.8,0-2.2,0.2-3.2,0.5c-0.2,0-0.3,0.1-0.4,0.2l0,0v7.2h1.8v-2c0.6,0.1,1.3,0.1,1.7,0.1c1.6,0,2.7-0.1,3.6-0.8c0.9-0.7,1.1-1.5,1.1-2.1C49.5,43.9,49.3,43.1,48.4,42.3z M47.2,45.4c-0.5,0.4-1,0.5-2.3,0.5c-0.4,0-1.1,0-1.7-0.2v-2.3c0.6-0.1,1.4-0.2,1.7-0.2c1.4,0,1.8,0.1,2.3,0.5c0.4,0.3,0.4,0.8,0.4,0.9C47.6,44.5,47.6,45.1,47.2,45.4z"/>
<path d="M12.1,48.6c0.9,0.5,2.3,1,4.1,1c0.1,0,0.2,0,0.3,0c1.7,0,2.7-0.4,3.3-1c0.5-0.5,0.6-1,0.6-1.7c-0.2-1.7-2.3-1.7-4-2c-1.2-0.2-2.3-0.4-2.3-1c0-0.5,0.6-0.7,1.7-0.6c1.4,0,2.2,0.3,3.2,0.8l0,0l0.7-1.4l0,0c-1.3-0.7-2.9-1.1-4.6-0.9c-2.9,0.3-2.9,1.8-3,2.1c-0.1,0.6,0.1,1.1,0.5,1.5c0.6,0.6,1.3,0.9,3.4,1.2c1.5,0.2,2.3,0.4,2.2,0.9c-0.1,0.6-1.5,0.6-2.2,0.6c-1.3-0.1-2.4-0.4-3.3-0.8L12.1,48.6z"/>
<path d="M26.9,41.8H25l-3.9,7.5H23l0.8-1.6h4.3l0.8,1.6h1.8L26.9,41.8L26.9,41.8z M27.2,46.1h-2.5l1.2-2.5L27.2,46.1z"/>
<path d="M58.5,42.6c-0.8-0.6-1.9-1-3.2-1s-2.4,0.4-3.2,1c-1,0.7-1.6,1.7-1.6,3c0,1.2,0.5,2.2,1.6,3c0.9,0.6,1.9,1,3.2,1s2.4-0.4,3.2-0.9c1-0.7,1.5-1.7,1.5-3C60.1,44.3,59.5,43.3,58.5,42.6z M55.3,43.2c1.3,0,2.8,0.9,2.8,2.3c0,1.3-1.2,2.3-2.7,2.3c-1.7,0-2.9-0.9-2.9-2.3C52.5,44.1,53.9,43.2,55.3,43.2z"/>
<path d="M39.1,42.3c-0.9-0.7-1.9-0.8-3.5-0.8c-0.8,0-2.2,0.2-3.2,0.5c-0.2,0-0.3,0.1-0.4,0.2l0,0v7.2h1.8v-2c0.6,0.1,1.3,0.1,1.7,0.1c1.6,0,2.7-0.1,3.5-0.8c0.9-0.7,1.1-1.5,1.1-2.1C40.2,43.9,40,43.1,39.1,42.3z M37.9,45.4c-0.5,0.4-1,0.5-2.3,0.5c-0.4,0-1.2,0-1.7-0.2v-2.3c0.6-0.1,1.4-0.2,1.7-0.2c1.3,0,1.8,0.1,2.3,0.5c0.4,0.3,0.4,0.8,0.4,0.9C38.3,44.5,38.3,45.1,37.9,45.4z"/>
<path d="M78.8,42.6c-0.8-0.6-1.9-1-3.2-1c-1.3,0-2.4,0.4-3.2,1c-1,0.7-1.6,1.7-1.6,3c0,1.2,0.5,2.2,1.6,3c0.8,0.6,1.9,1,3.2,1c1.3,0,2.4-0.4,3.2-0.9c1-0.7,1.6-1.7,1.6-3C80.3,44.3,79.9,43.3,78.8,42.6z M75.6,43.2c1.3,0,2.8,0.9,2.8,2.3c0,1.3-1.2,2.3-2.7,2.3c-1.7,0-2.9-0.9-2.9-2.3C72.9,44.1,74.2,43.2,75.6,43.2z"/>
<path d="M21.3,21.5c-2.3-2.4-5.2-3.4-9.7-3.4c-3.1,0-5.8,0.8-7.9,2.4C1.3,22.4,0,24.8,0,27.8s1.3,5.4,3.8,7.3c2.1,1.6,4.8,2.4,7.9,2.4c4.3,0,7.4-1,9.7-3.4l-3.1-3.1c-1.6,1.4-3.9,2.1-6.4,2.1c-3.9,0-6.4-2.1-6.4-5.2s2.7-5.2,6.4-5.2c2.7,0,5,0.7,6.4,2.1L21.3,21.5z"/>
<path d="M89.4,20.2c-2.1-1.7-4.7-1.9-8.5-1.9c-2,0-5.3,0.4-7.6,0.9c-0.4,0.1-0.6,0.2-0.9,0.4l-0.2,0.1v17.4h4.6v-4.8c1.5,0.2,3,0.3,4.1,0.3c3.8,0,6.3-0.3,8.5-1.9c2.2-1.7,2.6-3.6,2.6-5.2C92,23.8,91.7,22,89.4,20.2z M86.5,27.4c-1.1,0.8-2.3,1.1-5.5,1.1c-0.9,0-2.7-0.2-4.1-0.5v-5.3c1.6-0.3,3.2-0.5,4.1-0.5c3.1,0,4.3,0.3,5.5,1.1c0.8,0.6,0.8,1.9,0.8,2C87.3,25.6,87.3,26.8,86.5,27.4z"/>
<path d="M41.1,20.5c-2.1-1.7-4.8-2.4-7.8-2.4s-5.7,0.8-7.8,2.4c-2.5,1.9-3.8,4.3-3.8,7.3s1.3,5.4,3.8,7.3c2.1,1.7,4.8,2.4,7.8,2.4c3.1,0,5.7-0.8,7.8-2.4c2.5-1.9,3.8-4.3,3.8-7.3C44.8,24.8,43.6,22.4,41.1,20.5z M33.3,33.3c-3.2,0-6.5-2-6.5-5.4s3.3-5.4,6.5-5.4c3.1,0,6.4,2.1,6.4,5.4S36.4,33.3,33.3,33.3z"/>
<path d="M66.1,20.5c-2.1-1.7-4.8-2.4-7.8-2.4c-3,0-5.7,0.8-7.8,2.4c-2.5,1.9-3.8,4.3-3.8,7.3s1.3,5.4,3.8,7.3c2.1,1.7,4.8,2.4,7.8,2.4c3.1,0,5.7-0.8,7.8-2.4c2.5-1.9,3.8-4.3,3.8-7.3C69.8,24.8,68.5,22.4,66.1,20.5z M58.2,33.3c-3.2,0-6.5-2-6.5-5.4s3.3-5.4,6.5-5.4c3.1,0,6.4,2.1,6.4,5.4C64.8,31.2,61.4,33.3,58.2,33.3z"/>
<rect x="26.1" y="10.6" class="st0" width="39.2" height="1.2"/>
<path d="M33.4,7.3c2-0.7,2.9-1.7,2.9-3.2c0-1.8-1.5-2.9-3.7-2.9c-1.2,0-2.8,0.3-5.1,0.7h-0.1l0.6,1.5c0.7-0.2,2.9-0.8,4.3-0.8c0.1,0,0.2,0,0.3,0c1.2,0.1,1.9,0.6,1.9,1.5s-0.5,1.4-1.6,1.8c-0.8,0.3-1.5,0.4-2.9,0.6h-0.2l0.3,1.5C31.6,7.8,32.4,7.6,33.4,7.3z"/>
<path d="M62.9,1.3l-0.6,0.5c0.5,0.4,0.7,0.7,1,1.2L64,2.5C63.7,1.9,63.4,1.6,62.9,1.3z M62,2l-0.6,0.5c0.4,0.4,0.7,0.7,1,1.2l0.7-0.5C62.7,2.8,62.4,2.4,62,2z M58.8,4.8c-0.5-0.3-0.6-0.5-0.6-0.6c0-0.1,0-0.2,0.2-0.3l0.1-0.1c1.3-1,2-1.6,2.9-2.7L60.3,0c-0.9,1.2-3.1,3.1-3.7,3.5c-0.3,0.2-0.3,0.4-0.3,0.5c0,0.2,0.3,0.5,0.7,0.7c1.4,1,2.4,2,3.6,3.4l1.2-0.7C60.9,6.4,60.2,5.8,58.8,4.8L58.8,4.8z"/>
<path d="M44,3c0,0-0.7,0-1.2,0l-0.1-1.2c0.5,0,1,0,1.7,0c0.2-0.6,0.3-0.9,0.5-1.7l1.5,0.3c-0.2,0.6-0.2,0.7-0.4,1.2c0.5,0,1-0.1,1.4-0.2l0.1,1.2c-0.7,0.1-1.2,0.2-1.9,0.2c-0.6,1.7-1,2.7-1.9,4l-1.4-0.7C43.1,5.2,43.5,4.2,44,3 M48.9,1.3c0.9,0.6,1.6,1.1,2.2,1.7l-1,1c-0.6-0.7-1.3-1.3-2.1-1.8L48.9,1.3z"/>
<path d="M50.8,6.6c-0.7-0.5-1.1-0.7-2.1-0.9V3.4h-1.4l0.1,2c-0.1,0-0.2,0-0.3,0h-0.2c-1.5,0-2.4,0.6-2.4,1.6c0,0.9,0.8,1.6,2.1,1.6h0.1c1.4,0,1.8-0.8,1.8-1.6c0.5,0.2,0.8,0.4,1.3,0.7l0,0L50.8,6.6L50.8,6.6z M46.7,6.5c0.3,0,0.5,0,0.7,0.1v0.1c0,0.5-0.2,0.7-0.6,0.7c-0.1,0-0.1,0-0.2,0c-0.5,0-0.8-0.3-0.8-0.5C45.8,6.7,46.2,6.5,46.7,6.5z"/>
</svg>
