<svg xmlns="http://www.w3.org/2000/svg" viewBox="0 0 358 358"><defs><style>.cls-3{fill:#1d2c59}.cls-4{fill:#fff}</style></defs><path d="M356 179A177 177 0 11179 2a177 177 0 01177 177z" fill="#c5c5c5"/><path d="M179 16a163 163 0 10163 163A163 163 0 00179 16zm0 282.9A119.8 119.8 0 11298.9 179 119.8 119.8 0 01179 298.9z" fill="#d80a30"/><path class="cls-3" d="M69.3 258.9l-7.7 3.6a2.8 2.8 0 00-.6.3c-.4.3-.7.8-.4 1.2.6.8 1.7.8 3 .3l7.3-3.4 2.1 2.8-7.8 3.6a4.7 4.7 0 00-.7.5.7.7 0 00-.2 1.1c1.5 2 7 .1 9.1-1.5l-.6-.5c-.4-.5 0-1.1.4-1.4a1.3 1.3 0 012 .4c.8 1 .1 1.9-.7 2.5-3.2 2.4-9.9 5-12.9.9-1-1.3-1-2.5-.1-3.6a4 4 0 01-3.8-1.6c-.9-1.2-.9-2.6.8-3.9a8.4 8.4 0 011.4-.8l7.3-3.4zM82.9 274.8l-7.1 4.8a2 2 0 00-.5.4c-.4.4-.7.9-.3 1.3.7.6 1.8.4 3-.2l6.7-4.5 2.5 2.5-7 4.7a4.8 4.8 0 00-.8.6.7.7 0 000 1.1c1.7 1.7 7-1 8.8-2.9-.2.1-.6-.2-.7-.3-.5-.5-.2-1.2.2-1.6a1.3 1.3 0 012 .2c.9.8.4 1.8-.4 2.6-2.7 2.8-9 6.3-12.5 2.8-1.2-1.1-1.5-2.3-.7-3.5a4 4 0 01-4-1c-1-1-1.3-2.5.2-4a8.8 8.8 0 011.2-1l6.8-4.5zM98.8 288.6l-6.3 5.9a3 3 0 00-.4.4c-.3.5-.5 1 0 1.3.8.6 1.9.2 2.9-.6l6-5.5 2.9 2-6.4 5.9a4.9 4.9 0 00-.6.7.7.7 0 00.2 1.1c2 1.4 6.7-2 8.3-4.2l-.8-.3c-.5-.3-.3-1.1 0-1.5a1.3 1.3 0 012-.2c1 .6.6 1.7 0 2.6-2.3 3.2-8 7.7-12 4.8-1.3-1-1.8-2.1-1.2-3.4a4 4 0 01-4-.4c-1.3-.8-1.7-2.2-.5-4a7.7 7.7 0 011.1-1.1l6-5.5zM110.3 306a2 2 0 11-1.9 3.5 2 2 0 011.9-3.4zM126.9 307c-.8-.3-1.9.4-2.7 1.4l-4.5 6.6-3.3-1.4 7.1-10.3 3.3 1.3-.7 1.1a3.6 3.6 0 013.1-.2 2.5 2.5 0 011.5 3.7c-.8 1.8-3 4.1-3.5 5.4a.9.9 0 00.5 1.3c1 .4 1.7-.2 2.7-1.2l1 .4c-2.8 3.2-4.8 3-6 2.4a2.6 2.6 0 01-1.6-3.6c.6-1.6 2.8-4 3.4-5.4.3-.8.2-1.3-.3-1.5zM143 310.4l-4 7.5a3.6 3.6 0 00-.4.7c-.2.7 0 1 .7 1.2a2.7 2.7 0 002.7-1.5l1 .3c-2.5 3.5-5 3.3-6.2 2.9s-2.3-1.6-1.7-3.6a7.3 7.3 0 01.7-1.4l3.8-7.1zm.4-5.4a2 2 0 11-2.4 1.4 2 2 0 012.4-1.4zM157.8 321.8a15.1 15.1 0 01-4.3 2.2 5.4 5.4 0 01-4 .8c-2.6-.5-3.3-2.4-3-3.8a2.5 2.5 0 011.7-2 37.5 37.5 0 004.4-6.6l3.7.2c-1 6.3-1 7.3-1.2 9a3.8 3.8 0 01-.3.8 13.2 13.2 0 002-.9zm-9.3-.7a.7.7 0 01-.6-.4c-.3 1.1 0 1.8 1.1 2a2 2 0 002.5-1.8c.3-1.3.2-2 .7-5.8a28.4 28.4 0 01-2.8 4.1 1 1 0 01.3 1 1.2 1.2 0 01-1.2 1zM167.2 325.3c1.9.1 3.2-.8 4.5-2.1h.9c-1.6 2.2-4 4.3-7.2 4-2.3-.2-3.7-1.5-3.5-4.3s2.4-8.6 7.4-8.1c2.2.2 2.6 1.3 2.5 2.6-.2 2.8-3.1 4.8-6.1 4.7l-.1 1c-.2 1.6.4 2 1.6 2.2zm2.2-9.2c-1.3-.1-2.7 2.4-3.4 4.8a4.1 4.1 0 004-3.7c0-.6-.1-1-.6-1.1zM188.8 315.3l-4.8 3.5a3.8 3.8 0 01.8 0 2.6 2.6 0 012.8 2.7 3.8 3.8 0 010 1l-.3 1.2a4 4 0 00-.1.8c0 .5.2 1 1 .9 1 0 1.5-1 2-2.2h1c-1.4 4.2-3.3 4.6-4.5 4.6-2 0-3.1-.9-3.2-2.7a6.9 6.9 0 01.2-1.3l.1-1a4.3 4.3 0 00.1-1c0-.6-.2-1-.9-1a3.1 3.1 0 00-1.8.9l-1.1 6.1h-3.6l3.2-16.8 3.6-.6-1.6 8.8 4.7-3.9zM204.5 316.5c.8-.3 1.3-1.4 1.5-2h.7a7 7 0 01-2 3.6c.5 4.7-1.5 8-4.6 8.5-2.3.3-4-.5-4.5-3.3s.3-8.9 5.3-9.6c2-.3 3.1.6 3.6 2.8zm-1.8 2.3c-.4-.1-.6-.5-.7-1a1.3 1.3 0 01.5-1.4c-.2-1-.6-1.4-1.2-1.3-1.7.3-2.5 5-2.1 7.3.2 1.7.6 2 1.5 1.8 1.2-.1 2-2.5 2-5.4zM218.3 317.2l-4.8 1.3v-2l4.8-1.3zM229.3 308.6c-.8.3-1 1.5-1 2.8l1.3 8-3.3 1.3-2-12.5 3.4-1.2.2 1.3a3.7 3.7 0 012.2-2.3 2.5 2.5 0 013.5 1.6c.7 1.9.7 5 1.2 6.4a.9.9 0 001.3.6c1-.4 1-1.4 1.1-2.8l1-.4c.2 4.3-1.4 5.5-2.6 6a2.6 2.6 0 01-3.8-1.6c-.6-1.6-.6-4.8-1.2-6.3-.3-.8-.7-1-1.3-.9zM240 295.8a2 2 0 111.8 3.5 2 2 0 01-1.7-3.5zm3.4 4.2l2.2 8.3a4.3 4.3 0 00.3.7c.3.6.7.7 1.3.4a2.7 2.7 0 001-3l1-.4c.5 4.2-1.4 5.8-2.6 6.4s-2.8.4-3.7-1.5a8 8 0 01-.5-1.5l-2.1-7.8zM255.8 295.2c-.3-.5-.7-.7-1-.5-1.4.9-.3 5.6 1 7.7.8 1.3 1.6 1.4 2.3 1a5.4 5.4 0 001.8-2.7 4 4 0 01-1.7 5.3c-2 1.2-3.8 1-5.3-1.3s-3.3-8.3 1-11c1.8-1.1 2.9-.4 3.5.6s.4 1.8-.2 2.1a1.5 1.5 0 01-.9.3 4.2 4.2 0 00-.5-1.5zM267.3 295a2 2 0 012.7.4 2 2 0 11-2.8-.4zM275.6 279.7c-.5-.5-.9-.6-1.2-.3-1.2 1 .7 5.5 2.5 7.5 1.1 1.2 1.9 1.1 2.7.3 1.4-1.3 1.6-2.9 1.6-4.7l.6-.6c.5 2.6.5 5.7-2 8-1.7 1.5-3.5 1.7-5.4-.4s-4.7-7.6-1-11c1.6-1.4 2.8-1 3.5 0s.8 1.6.3 2.1a1.5 1.5 0 01-.9.4 4.7 4.7 0 00-.7-1.3zM288.4 268.4a.5.5 0 00.2-.1 7.9 7.9 0 001.4-3.9l.7.3a7.8 7.8 0 01-1.4 4.6c3.2 3.3 3.7 7 1.7 9.4-1.6 1.7-3.5 2.2-5.6.3s-5.4-7-2-10.8c1.3-1.6 3-1.5 5 .2zm-.4 2.5a1 1 0 01-1.2-.2 1.4 1.4 0 01-.5-1.4c-.8-.7-1.3-.7-1.7-.3-1.2 1.3 1.2 5.5 3 7 1.2 1.2 1.7 1.2 2.3.5.9-1 0-3.4-1.9-5.6zM298 252.4c-.5.7 0 1.9.8 2.8l5.7 5.8-2 3-6-6.2a2.4 2.4 0 00-.6-.4c-.4-.3-1-.4-1.3 0-.5.8 0 2 .8 3l5.7 5.7-2 3-8.8-9 2-3 .9 1a3.8 3.8 0 01.5-3.3 2.3 2.3 0 013.2-1 3.9 3.9 0 010-4 2.5 2.5 0 014-.7c1.6 1 3.4 3.7 4.6 4.5a.9.9 0 001.4-.3 1.6 1.6 0 00.3-.7 2.6 2.6 0 01.6 3.7c-1 1.5-2.5 1.3-3.7.5-1.4-1-3.3-3.6-4.6-4.4-.6-.5-1.2-.5-1.5 0z"/><path class="cls-4" d="M39.4 181a3 3 0 11-3 3 3 3 0 013-3zM51.6 154.4l-.4 3L43 156c-2-.4-3.8 0-4 2a3.2 3.2 0 003 3.6l8.3 1.3-.5 3-10-1.6-4-.5.4-2.5 2 .1a4.9 4.9 0 01-1.7-4.7c.4-2.2 2.2-4.4 6.5-3.7zM38 141.7a1.7 1.7 0 11-1.2-2.1 1.7 1.7 0 011.2 2zm16.2 2.9l-.8 2.8-13.7-3.7.8-2.9zM48 127a5.3 5.3 0 00-1.7 2.3 1.8 1.8 0 00.9 2.5c.9.4 1.6 0 2.9-1.4 1.7-1.8 3.3-2.5 5.3-1.8 2.5 1 3.3 3.5 2.2 6.5a7.8 7.8 0 01-2.3 3.2l-1.8-1.4a6.9 6.9 0 002-2.7c.5-1.5 0-2.4-1-2.8s-1.7 0-3 1.3c-1.7 2-3.4 2.5-5 2-2.2-.9-3.3-3.3-2.2-6.1a7 7 0 012-2.9zM66 114.7a11 11 0 01-1.3 4.4c-2 3.8-5.7 4.7-9.5 2.6s-5.6-5.6-3.8-9.2 5.6-3.4 8.7-1.7a9 9 0 011 .6l-4.1 8c2.9 1.4 4.8.2 5.9-1.8a9 9 0 001.1-3.4zm-8-1.8c-1.5-.8-3.7-1.2-4.8.8s.5 3.8 2 4.7zM77 99.4l-2 3-7.8-.4.5 1.8 4.2 2.9-1.7 2.4-16.9-11.9 1.8-2.4 10.4 7.4-.7-1.9-1.8-5.6 2-2.9 2 7.4zM83.1 81.7c4 3.6 3.2 7.6 1 10-2.5 2.7-6.4 3-9.7-.2-3.6-3.2-3.6-7.2-1-10s6.5-2.7 9.7.2zM75 83.1c-1.7 1.9-.4 4.5 1.4 6.1 2 2 4.7 2.5 6.2 1S83.2 86 81 84c-1.7-1.6-4.4-2.7-6.1-.9zM91.7 62.5a1.7 1.7 0 11.3-2.4 1.7 1.7 0 01-.3 2.4zm11 12.2l-2.4 1.8L91.8 65l2.3-1.8zM118.8 64.4l-2.6 1.5-4.3-7.1c-1-1.8-2.4-2.9-4.2-1.8a3.2 3.2 0 00-.8 4.5l4.3 7.3-2.5 1.6-5.2-8.8-2.2-3.4 2.3-1.3 1.2 1.7a4.9 4.9 0 012.5-4.3c2-1 4.8-1.1 7 2.7zM118.8 45.8l2.4-2 1.4 3.2 3-1.4 1 2-3.1 1.4 2.9 6.6c.7 1.6 1.5 2.1 2.7 1.6a4.4 4.4 0 001.1-.7l1 2a6.6 6.6 0 01-2 1.3 3.7 3.7 0 01-3 .2c-1-.4-1.7-1.4-2.5-3l-3-6.8-1.8.8-1-2 2-.8zM146.7 52.8a11 11 0 01-4 2.2c-4.1 1.2-7.3-.8-8.6-4.9s0-8 3.8-9.1 6.3 1.5 7.4 4.8a8.7 8.7 0 01.3 1.3l-8.6 2.6c1 3 3.3 3.6 5.4 3a8.8 8.8 0 003.2-1.8zm-4.4-7c-.5-1.6-1.8-3.4-4-2.7s-2.3 3-2 4.6zM158.6 39.2a4 4 0 00-1 0c-2 .4-2.8 2.3-2.4 4.7l1.4 7.4-3 .5-1.7-9.7c-.4-1.6-.6-3-1-4.2l2.6-.5.6 2.6a4 4 0 013.2-3.6 3.9 3.9 0 01.7 0zM178 49l-3 .2-.6-8.3c-.2-2-1-3.6-3-3.5a3.2 3.2 0 00-2.8 3.6l.6 8.6-3 .1-.7-10.1c0-1.6-.2-2.8-.3-4l2.6-.2.2 2.1h.1a4.9 4.9 0 014.1-2.7c2.3-.1 4.8 1.1 5 5.5zM195.2 46.4a20.3 20.3 0 000 3.3l-2.7-.1v-1.7h-.1a4.8 4.8 0 01-4.1 1.7 4 4 0 01-3.9-4.5c.2-3.5 3.4-5 8.3-4.7 0-1 .2-3.1-2.7-3.3a6.5 6.5 0 00-3.5.7l-.4-2a8.9 8.9 0 014.6-.9c4.2.3 5.1 3.2 5 6.2zm-2.6-4c-2.4-.1-5 .1-5.3 2.6a2 2 0 002 2.4 3 3 0 003.1-2.6zM205.7 34.4l3-.4-.6 3.4 3.3.7-.4 2.2-3.3-.7-1.3 7.1c-.3 1.7 0 2.7 1.3 2.9a4.5 4.5 0 001.3 0l-.3 2.3a6.6 6.6 0 01-2.3 0 3.7 3.7 0 01-2.6-1.6c-.6-1-.7-2.1-.4-4l1.4-7.2-2-.4.4-2.2 2 .4zM217.6 54.3l-2.9-.8 3.8-13.7 2.9.8zm3-16.2a1.7 1.7 0 111-3.3 1.7 1.7 0 01-1 3.3zM238.6 54.3c-2 5-6 5.7-9 4.5-3.3-1.4-5-5-3.2-9.2 1.8-4.4 5.5-5.8 9-4.4s4.8 5 3.2 9.1zm-4.2-7c-2.3-1-4.2 1.1-5.1 3.4-1 2.5-.7 5.2 1.3 6s4-.9 5.2-3.5c.8-2.1 1-5-1.4-6zM251.7 69.6l-2.6-1.5 4.1-7.2c1-1.7 1.3-3.5-.5-4.6a3.2 3.2 0 00-4.4 1.5l-4.2 7.4-2.6-1.4 5-8.9c.9-1.3 1.4-2.4 2-3.5l2.2 1.3-.9 2a4.9 4.9 0 015 0c2 1 3.4 3.5 1.2 7.3zM267.4 77a18.8 18.8 0 00-2 2.8l-2-1.7.8-1.4h-.1a4.8 4.8 0 01-4.3-.9 4 4 0 01-.8-5.8c2.2-2.8 5.7-2.3 9.5.7.7-.9 2-2.6-.3-4.3a6.7 6.7 0 00-3.3-1.4l.7-2a8.7 8.7 0 014.3 2c3.3 2.5 2.6 5.4.7 7.8zm0-4.8c-2-1.4-4.3-2.7-5.9-.7a2 2 0 00.3 3 2.9 2.9 0 004.1-.4zM272.7 86.6l-2.1-2.1 14.2-15 2.2 2.1zM290 106.2a9.1 9.1 0 01-2.8-2.5c-2.5-3.3-1.8-7 1.7-9.7s7.7-2.3 10.5 1.3a7.6 7.6 0 011.3 3l-2.1.9a5.5 5.5 0 00-1.1-2.4c-1.7-2.2-4.4-2.1-6.6-.5-2.5 1.9-3 4.5-1.5 6.5a6.5 6.5 0 002 1.8zM294.3 114.2l-1.5-2.6 17.7-10.6 1.5 2.6zM299.2 123.3l-1.3-2.7 12.7-6.3 1.3 2.6zm14-8.7a1.7 1.7 0 01.8-2.3 1.7 1.7 0 111.5 3.1 1.7 1.7 0 01-2.3-.8zM306.3 140.9l-1-2.8 7.8-2.9c1.9-.6 3.2-1.9 2.5-3.8a3.2 3.2 0 00-4.2-1.6l-8 2.9-1-2.8 9.5-3.5 3.7-1.4.9 2.4-2 .9a4.8 4.8 0 013.8 3.2c.8 2.1.3 5-3.9 6.4zM308.9 150.8l-.7-3 13.8-3.3.7 2.9zm15.5-5.4a1.7 1.7 0 011.3-2 1.7 1.7 0 11.8 3.3 1.7 1.7 0 01-2-1.3zM312.2 167.3a9.2 9.2 0 01-1.3-3.6c-.5-4 1.9-7 6.3-7.7s7.8 1.7 8.5 6.2a7.7 7.7 0 01-.2 3.3l-2.4-.3a5.7 5.7 0 00.2-2.6c-.4-2.8-2.8-4-5.6-3.6-3 .4-4.7 2.5-4.3 5a6.6 6.6 0 001 2.6zM322 187.3a3 3 0 113-3 3 3 0 01-3 3zM272.5 140.1h-54.6V85.6H140V140H85.5v77.7h54.6v54.6H218v-54.6h54.6v-77.7z"/><path d="M249.8 183.8c-2.2-.8-17.3-8-27.6-12.4-2.9-1.3-16.2-8.1-21.1-11-.5-.3-1-.3-2.5 0a33 33 0 00-5.5-3.4c-1.5-.5-2.5.7-5.4.4-1-.1-1.9-1.4-8.7-2.7l-3.9.5-4.6.7c-2.4.1-1.8-1.3-4-.5-1.7.7-11.2 5.7-12.6 7-1 .8-14.5 8.8-15.7 9.5-3 1.7-10 4.2-24.3 11.1-2.1 1-12 4-17.6 6.4l-10.7 4.1v24.3h54.6v54.6h77.7V218h54.6V192s-10.5-3.6-22.7-8.2z" fill="#8bcccd"/><path class="cls-4" d="M186 169c-.6-1.6-1.7-2.4-2-4.5a13.8 13.8 0 00-1.2-4.7c-.6-1.4 0-2.8-2.3-2.8-1.9-.1-2.3.8-2.4 2.6s3 7-.2 7.3a10.2 10.2 0 000-2.3c-.2-.7-1-.8-1.2-1.5-.4-1.5.4-3 .2-4.7a2.5 2.5 0 00-1.7-.2l-.2.2c-.8 1-2 3.7-2.9 5.1-1.1 2-5.6 9.5-7.6 11.3s-5.7 4.4-6.2 7.2c.5-.3.9-.2 1.2-.4 1.6 1.5-3.1 3.7-2.7 6 2.2.8-1.6 2.8 0 6.7.7-1.8 5.2-4.6 5.5-5.4.6-1.3 1.6-2 2-3.6.2-.9 2-2.4 2.3-3.5.5-1.4 4.1-5.7 4.4-8.2.7-1.7 1.9-.9 3.3-3.3.7 2.6-2.7 6.7-1.8 6.9s2.7-2 3.5-3.4a40 40 0 013.6-5.6c2.2 2.2 0 3.9-1 5.8a41.5 41.5 0 01-3.3 5c-1.6 2.2-1 4.4-1.6 6.7-.6 2.2-2.7 4-3.1 5.7 2.9-1.8 5.2-3.2 6.3-6.5 1.2-3.5 2.3-4.8 5-7.3 2.3-2.2 5.4-4.8 4.1-8.6zM171.1 159.3c-.7 1.6-3.2 2.4-5.5 3.4a5.5 5.5 0 001-2.4 7.4 7.4 0 01-.8-.1 7.5 7.5 0 00-3.1 2.4 40.8 40.8 0 01-3.3 2.8c-2.3 2.1-3.6 5-6.4 6.7a49.5 49.5 0 01-4.2 3c-2 1-3.4.4-5.1 2-2.8 2.4-5 4.9-8.1 7-1.2.7-2.2 1.5-3.2 2.2 8.9-2.5 14.4-9.5 18-10.2-1.8 1.8-.6 1.7-2.2 3.6a13.9 13.9 0 00-2 3.8c-.6 2.3-.8 4 0 3s4.3-3.6 6-6.7a56.6 56.6 0 017.7-10.8c.8-1 1.8-1.8 2.7-2.8l.6-.6c1.8-.5 4.3-1.5 5-1.7 0 .3-6.7 6-10.2 10 4.1-.8 5-3.6 7.9-5.7.8-.7 1.8-1 2.6-1.7 1-1 .8-1.2 1.4-2.4.8-1.6 2.1-2.7 3-4.4 0-.3-1-.5-1.8-.4zM161.5 161.3c0-.3-.3-.1-.3-.1a56.7 56.7 0 00-7.6 4.6c-1 .7-4.9 2-5.1 2.4l-4.8 3-5.8 3.1-6.4 3.7a35.2 35.2 0 01-8 3.7c-2.7 1-4.8 3.5-7.6 4-.4.4-1.9 2-1.6 2.2.7 1 5.6-.6 8.6-2.3 2.7-1.5 5.9-3 8.6-4.4 2.5-1.3 5.4-1.7 7.8-3.6 1.1-1 2-2.2 3.2-3.1.7-.6 4.2-2.3 6-4a39.3 39.3 0 006.1-3.6c2.4-1.4 7.3-4.8 7-5.6zM247.1 189.2c-.5-.5-.7-1-1.4-1.2-1-.3-4.7-2.3-4.7-2.3-.4-1.4-4.6-3.6-5.7-4.3-.9-.5-3.9-1.8-4.5-2.3-.8-.6-2.7-2-3.3-.5a3.4 3.4 0 00.7.8c-2.8-1.3-5.3-4.4-8-6.4l-4.7-2.8c-1.2-.8-6.8-4.4-8.3-4-4.3-1 4 3.2 2.7 3.5a7.6 7.6 0 001.8 1.9 45.6 45.6 0 005.8 4.9c2.3 1.5 4 3.7 6 5.6 3.2 3 7.5 5 11 7.5 1.8 1.3 5.5 3.9 7.8 3.5-.6-1.9-2.4-4-4.5-4.2-.3-1-4.7-4.7-5.2-4.8 1.5-.4 4.6 1.4 5.6 2.4 1.6 1.6 2.9.6 5 1.6 1.1.6 3 2.8 4 3.5s3.8 2.8 5 2.6c.3-3.4-3-3.3-5-5zM210.3 184c1.3 2 3.3 2.7 3.4 5.4a17.6 17.6 0 00-3-2.7c-.5-.3-1.6-.7-1.8-1.4-.3-1 0-1.8 1-1.4zM193.5 181c.6 1.5 2.4 1.2 2.3 2.9l-.8 2c-.6.6-1 1-2 .8-.4-1.1.1-1.6.3-2.5a17.7 17.7 0 00-.1-3c0-.6.3-.2.3-.2z"/><path class="cls-4" d="M219.6 185.2l-2.5-3.2c-1.7-2.4-3.2-5-5.1-7.2a49.4 49.4 0 00-7.2-6.3 24.5 24.5 0 01-2.8-2.6c-.7-1.5-3-3.2-3.9-3.3a3.1 3.1 0 01-.5-.2c.5 1.4 1.8 2.2 1.6 3.9-1.7-1.1-2.4-3.6-3-5.3a47.5 47.5 0 01-5.5-1.1 12.2 12.2 0 01-3.9-1.8c-.3 1.6 1.2 1.9 2.5 2.7s-.7 1.4-3.4 1.6c0 1.7-.4 3.4.7 4.6s3 1.3 4.6 1.8a26.8 26.8 0 014.3 2c1.5 1.2.8 2.7 3.7 2.4.1-2.2-.6-4.5 1.2-2.7a18.8 18.8 0 004 3.6c1.2.8 6.4 8 6.8 8.5 1 1.2 5 6.1 6.6 6.3 0-1.6-9.1-10.7-9.1-13.7 1.6 0 1.8 2.2 2.6 3.1 1.1 1.4 2.9 2 4 3.4s2.5 2.9 3.8 4.2c.7.7 1.7 2.6 3 2.4.5-1.6-1.6-2.1-2.5-3.1z"/><path class="cls-4" d="M202.6 177.6c-1.1-1.3-.9-2.8-2.5-3.4l-.5-.1c-2.7 0-4.4-1.2-7-1a4.4 4.4 0 00-1.3 1.2 2.2 2.2 0 00.5 1.5c.7 1.6 4 5 5 5-.5-2.8 2.6-.3 3 .2.7 1 2.6.8 3.6.6s1.9-.5 1.7-1.6-1.4-1.9-2.5-2.4zM188.3 191a5.4 5.4 0 00-.9-2.4c-.7-1-1.6-5.8-1.4-6.3.2-1.2.3-3 .9-4s1.2-.7 1.7-1.9v-1c.4-2-1.2-1.8-2.4-.7-1 .9-.9 2.8-1.2 4a29.3 29.3 0 01-1.1 4.4c-.5 1.3-.2 2.5.4 7 .1 1 1 1.7 1.6 2.5l1 1.5a1.9 1.9 0 001.6 0c.7-.5.3-1.8-.2-3.1z"/></svg>